<?xml version="1.0" encoding="UTF-8" standalone="no"?>
<!-- Generator: Adobe Illustrator 26.5.0, SVG Export Plug-In . SVG Version: 6.00 Build 0)  -->

<svg
   xmlns:dc="http://purl.org/dc/elements/1.1/"
   xmlns:cc="http://creativecommons.org/ns#"
   xmlns:rdf="http://www.w3.org/1999/02/22-rdf-syntax-ns#"
   xmlns:svg="http://www.w3.org/2000/svg"
   xmlns="http://www.w3.org/2000/svg"
   xmlns:sodipodi="http://sodipodi.sourceforge.net/DTD/sodipodi-0.dtd"
   xmlns:inkscape="http://www.inkscape.org/namespaces/inkscape"
   version="1.1"
   id="Logos"
   x="0px"
   y="0px"
   viewBox="0 0 1000 600.04443"
   xml:space="preserve"
   sodipodi:docname="SLB_Logo_white_svg.svg"
   width="500"
   height="500"
   inkscape:version="0.92.4 (5da689c313, 2019-01-14)"><metadata
   id="metadata19"><rdf:RDF><cc:Work
       rdf:about=""><dc:format>image/svg+xml</dc:format><dc:type
         rdf:resource="http://purl.org/dc/dcmitype/StillImage" /><dc:title></dc:title></cc:Work></rdf:RDF></metadata><defs
   id="defs17" /><sodipodi:namedview
   pagecolor="#ffffff"
   bordercolor="#111111"
   borderopacity="1"
   objecttolerance="10"
   gridtolerance="10"
   guidetolerance="10"
   inkscape:pageopacity="0"
   inkscape:pageshadow="2"
   inkscape:window-width="1920"
   inkscape:window-height="1017"
   id="namedview15"
   showgrid="false"
   fit-margin-top="0"
   fit-margin-left="0"
   fit-margin-right="0"
   fit-margin-bottom="0"
   inkscape:zoom="0.34674421"
   inkscape:cx="790.27693"
   inkscape:cy="334.16143"
   inkscape:window-x="1912"
   inkscape:window-y="-8"
   inkscape:window-maximized="1"
   inkscape:current-layer="Logos" />
<style
   type="text/css"
   id="style2">
	.st0{fill:#FFFFFF;}
</style>
<path
   class="st0"
   d="M 472.03497,460.03408 C 280.61338,306.76347 200.82969,110.00815 0,110.00815 v 350.02593 z"
   id="path4"
   style="fill:#0014dc;fill-opacity:1;stroke-width:0.74079561"
   inkscape:connector-curvature="0" />
<path
   class="st0"
   d="m 879.10216,104.7485 c -39.11401,0 -74.00549,16.96422 -94.30329,41.92903 V 0 h -47.26276 v 350.02593 h 38.89177 l 4.96333,-36.81754 c 13.70472,18.37173 41.7068,42.07719 95.3404,42.07719 C 948.8851,355.28558 1000,303.7262 1000,230.60968 1000,157.49315 951.03341,104.7485 879.10216,104.7485 Z m -12.96393,206.68198 c -52.07793,0 -83.11727,-30.96526 -83.11727,-81.33936 0,-50.3741 31.85422,-81.33936 83.11727,-81.33936 51.26306,0 83.11727,30.96526 83.11727,81.33936 0,50.3741 -31.85421,81.33936 -83.11727,81.33936 z"
   id="path6"
   style="fill:#0014dc;fill-opacity:1;stroke-width:0.74079561"
   inkscape:connector-curvature="0" />
<rect
   x="655.3078"
   class="st0"
   width="47.26276"
   height="350.02594"
   id="rect8"
   style="fill:#0014dc;fill-opacity:1;stroke-width:0.74079561"
   y="1.1474609e-06" />
<path
   class="st0"
   d="m 521.74235,314.46774 c -34.44699,0 -70.6719,-16.81606 -90.08075,-40.966 l -31.85421,30.29854 c 31.11342,35.1878 71.70902,51.41122 119.93481,51.41122 66.07897,0 107.63761,-29.48367 107.63761,-79.11697 0,-103.26691 -179.34662,-38.66953 -179.34662,-96.82199 0,-21.26083 24.81665,-33.3358 63.48618,-33.3358 34.447,0 59.33773,11.18601 74.82036,27.11312 l 31.85421,-30.29854 c -21.11267,-22.66835 -60.81932,-38.00282 -105.4893,-38.00282 -66.81976,0 -110.74894,31.63197 -110.74894,81.63568 0,100.3778 178.60582,36.52122 178.60582,95.04408 -0.0741,20.59411 -23.33506,33.03948 -58.81917,33.03948 z"
   id="path10"
   style="fill:#0014dc;fill-opacity:1;stroke-width:0.74079561"
   inkscape:connector-curvature="0" />
<path
   class="st0"
   d="M 994.81443,424.99445 H 484.03585 c 105.41522,86.08045 267.35314,175.05 510.77858,175.05 z"
   id="path12"
   style="fill:#0014dc;fill-opacity:1;stroke-width:0.74079561"
   inkscape:connector-curvature="0" />
</svg>